<svg height="73" viewBox="0 0 73 73" width="73" xmlns="http://www.w3.org/2000/svg"><g fill="none" fill-rule="nonzero"><rect fill="#fff" height="71" rx="14" stroke="#09547b" stroke-width="2" width="71" x="1" y="1"/><g transform="translate(12 15)"><g fill="#44c868" transform="translate(12.537109 15.695312)"><path d="m36.4513105 27.2452441-3.8495625-21.20886519c-.0383769-.21169532-.1696816-.3950625-.3578339-.49966602l-9.6891758-5.38904297c-.1257539-.07005469-.2667246-.09790429-.4052071-.08718554l1.7627559 22.73982812-.0590488.0264141 11.5957734 5.2021347c.0943633.0422051.1946602.0630684.2944785.0630684.1580059 0 .3145762-.0519668.4432969-.1527422.2103555-.1642266.3120879-.4314297.2645234-.6939434z"/><path d="m11.9628906 5.29956055-9.90958005-5.16136524c-.11876758-.06191992-.25045508-.08718554-.38013282-.07847656.03435743-.00210547.06890625-.00191406.10316797.00076563l-1.76275586 22.73982812 11.65482226 5.2286445c.0940762.0421094.1944688.0630684.2944785.0630684z"/></g><g fill="#4ce166" transform="translate(0 15.695312)"><path d="m14.3133594.06058008c-.1384824-.01071875-.2794531.01713086-.4052071.08708984l-9.68927144 5.38904297c-.18815234.10460352-.31945703.287875-.35783399.49966602l-3.84946679 21.20886519c-.04766016.262418.05416797.5296211.26442773.6940391.12891211.1007754.28538672.1527422.44329688.1527422.09981836 0 .20021094-.0207676.29447851-.0630684l11.5326094-5.1738066z"/><path d="m34.6865449.06010156c-.0953203.00736914-.1895879.03273047-.2769648.07828516l-9.9095801 5.16126953v22.79246485c.1001055 0 .2005937-.0208633.2945742-.0630684l11.6548223-5.2286445z"/></g><path d="m2.69442578 28.1590176-.78199023 4.308459 11.57950395-6.1160039.26883-3.4681856.0445977-.5751758z" fill="#ffdb56"/><path d="m13.5961602 25.0066523-.1042207 1.3448204-11.57950395 6.1160039-1.90085547 10.47308c-.04766016.262418.05416797.5296211.26442773.6940391.12891211.1007754.28538672.1527422.44329688.1527422.09981836 0 .20021094-.0207676.29447851-.0630684l11.5326094-5.1738066z" fill="#a8eefc"/><g fill="#ffbb24" transform="translate(13.398438 18.183594)"><path d="m11.1044336 5.65414062-10.69750391-1.52962304-.31342774 4.04336133 11.00806055 16.71732619v-6.0788711l-6.56877539-10.34340236 6.57164649.78600977z"/><path d="m30.619832 2.62427539-4.6545215-2.58886523-4.4063632 1.02957421.055125.71164844.2176289 2.80735547z"/></g><path d="m35.6208945 27.8090312-.4172656-5.383205-.2462441-3.1772481-10.4545137 4.5891563v3.5948008l6.8289922-2.969668z" fill="#ffdb56"/><path d="m48.9884199 42.9405566-.9668887-5.3274101-12.7913925-14.8455645.3908515 5.0414493 13.1180274 15.812166c.1994453-.1652793.2958183-.4248262.2494023-.6806407z" fill="#ffbb24"/><path d="m24.5460332.04450195c-5.5472402 0-10.0603125 4.50933985-10.0603125 10.05208205 0 3.4286601 1.6278145 7.1097851 4.8383672 10.9409726 2.3580293 2.813959 4.683998 4.6238008 4.7819023 4.699502.1295821.1002012.2848125.1502539.4401387.1502539.1552305 0 .3105566-.0500527.4401387-.1502539.0978086-.0757012 2.423873-1.885543 4.7819023-4.699502 3.2105528-3.8311875 4.8383672-7.5122168 4.8383672-10.9409726-.0001914-5.5427422-4.5132637-10.05208205-10.0605039-10.05208205zm3.7257227 10.05198635c0 2.0558945-1.6681055 3.7226601-3.7257227 3.7226601s-3.7257227-1.6666699-3.7257227-3.7226601c0-2.05599025 1.6681055-3.72266018 3.7257227-3.72266018s3.7257227 1.66676563 3.7257227 3.72266018z" fill="#ff4a4a"/><path d="m24.5460332.04450195c-.4396602 0-.8727168.02851953-1.2976387.08345313 4.9366543.63805273 8.7627696 4.86516406 8.7627696 9.96862892 0 3.4286601-1.6278145 7.1097851-4.8383672 10.9409726-1.516416 1.8095547-3.0184766 3.2028965-3.9243067 3.9878536.5028243.4356406.8226641.6846601.8575.7116484.1295821.1002012.2848125.1502539.4401387.1502539.1552305 0 .3105566-.0500527.4401387-.1502539.0978086-.0757012 2.423873-1.885543 4.7819023-4.699502 3.2105528-3.8311875 4.8383672-7.5122168 4.8383672-10.9409726-.0001914-5.5427422-4.5132637-10.05208205-10.0605039-10.05208205z" fill="#e7343f"/><path d="m24.7945742 43.7242695 4.333916-1.9443047-4.6284902-4.7900371v6.7974102h.0000957c.1000098 0 .2004023-.0207676.2944785-.0630684z" fill="#ffdb56"/><g fill="#1ea4e9" transform="translate(12.537109 20.767578)"><path d="m32.6016523.96411328c-.0383769-.21169531-.1696816-.3950625-.3578339-.49966601l-.7627539-.42425196-8.7881309 1.95971289 12.7912969 14.8455645z"/><path d="m11.9628667 23.0197598-.0000718-.7185391-11.00796482-16.71732617-.94143164 12.14424807 11.65482226 5.2286445c.0940762.0422051.1944688.0629727.294646.0629727z"/></g></g></g></svg>